<svg width="120" height="120" viewBox="0 0 120 120" fill="none" xmlns="http://www.w3.org/2000/svg">
  <rect x="32" y="34" width="56" height="50" rx="12" fill="#F8F9FB" stroke="#0F172A" stroke-width="3"/>
  <rect x="46" y="20" width="28" height="16" rx="6" fill="#E0F2FE" stroke="#0F172A" stroke-width="3"/>
  <rect x="20" y="54" width="16" height="24" rx="6" fill="#E2E8F0" stroke="#0F172A" stroke-width="3"/>
  <rect x="84" y="54" width="16" height="24" rx="6" fill="#E2E8F0" stroke="#0F172A" stroke-width="3"/>
  <rect x="46" y="86" width="28" height="12" rx="4" fill="#0EA5E9" stroke="#0F172A" stroke-width="3"/>
  <rect x="40" y="40" width="40" height="24" rx="8" fill="#0EA5E9" stroke="#0F172A" stroke-width="3"/>
  <rect x="46" y="44" width="12" height="12" rx="6" fill="white" stroke="#0F172A" stroke-width="3"/>
  <rect x="62" y="44" width="12" height="12" rx="6" fill="white" stroke="#0F172A" stroke-width="3"/>
  <circle cx="52" cy="50" r="3" fill="#0F172A"/>
  <circle cx="68" cy="50" r="3" fill="#0F172A"/>
  <rect x="58" y="30" width="4" height="6" rx="2" fill="#0F172A"/>
  <rect x="58" y="16" width="4" height="6" rx="2" fill="#0F172A"/>
  <path d="M52 72C52 68.6863 54.6863 66 58 66H62C65.3137 66 68 68.6863 68 72V72H52V72Z" fill="#FACC15" stroke="#0F172A" stroke-width="3"/>
  <rect x="26" y="76" width="6" height="14" rx="2" fill="#0F172A"/>
  <rect x="88" y="76" width="6" height="14" rx="2" fill="#0F172A"/>
  <rect x="50" y="98" width="6" height="16" rx="2" fill="#0F172A"/>
  <rect x="64" y="98" width="6" height="16" rx="2" fill="#0F172A"/>
  <circle cx="60" cy="24" r="3" fill="#0F172A"/>
</svg>
